<mxfile host="app.diagrams.net" modified="2024-02-19T21:56:17.514Z" agent="Mozilla/5.0 (Windows NT 10.0; Win64; x64) AppleWebKit/537.36 (KHTML, like Gecko) Chrome/121.0.0.0 Safari/537.36 Edg/121.0.0.0" etag="5zEvyyt24MIorboB9Jyq" version="23.1.5" type="github">
  <diagram name="Página-1" id="qCBKzYEs-S8Hw4YkMV1d">
    <mxGraphModel dx="785" dy="519" grid="1" gridSize="10" guides="1" tooltips="1" connect="1" arrows="1" fold="1" page="1" pageScale="1" pageWidth="827" pageHeight="1169" math="0" shadow="0">
      <root>
        <mxCell id="0" />
        <mxCell id="1" parent="0" />
        <mxCell id="byFnbfLiZ-0v6rKLHjNA-1" value="Engenheiro" style="rounded=0;whiteSpace=wrap;html=1;" vertex="1" parent="1">
          <mxGeometry x="60" y="240" width="120" height="60" as="geometry" />
        </mxCell>
        <mxCell id="byFnbfLiZ-0v6rKLHjNA-2" value="Produtos" style="rounded=0;whiteSpace=wrap;html=1;" vertex="1" parent="1">
          <mxGeometry x="630" y="240" width="120" height="60" as="geometry" />
        </mxCell>
        <mxCell id="byFnbfLiZ-0v6rKLHjNA-5" style="edgeStyle=orthogonalEdgeStyle;rounded=0;orthogonalLoop=1;jettySize=auto;html=1;exitX=0;exitY=0.5;exitDx=0;exitDy=0;entryX=1;entryY=0.5;entryDx=0;entryDy=0;endArrow=none;endFill=0;" edge="1" parent="1" source="byFnbfLiZ-0v6rKLHjNA-3" target="byFnbfLiZ-0v6rKLHjNA-1">
          <mxGeometry relative="1" as="geometry" />
        </mxCell>
        <mxCell id="byFnbfLiZ-0v6rKLHjNA-6" style="edgeStyle=orthogonalEdgeStyle;rounded=0;orthogonalLoop=1;jettySize=auto;html=1;exitX=1;exitY=0.5;exitDx=0;exitDy=0;entryX=0;entryY=0.5;entryDx=0;entryDy=0;endArrow=none;endFill=0;" edge="1" parent="1" source="byFnbfLiZ-0v6rKLHjNA-3" target="byFnbfLiZ-0v6rKLHjNA-2">
          <mxGeometry relative="1" as="geometry" />
        </mxCell>
        <mxCell id="byFnbfLiZ-0v6rKLHjNA-3" value="Responsável" style="rhombus;whiteSpace=wrap;html=1;" vertex="1" parent="1">
          <mxGeometry x="360" y="230" width="80" height="80" as="geometry" />
        </mxCell>
      </root>
    </mxGraphModel>
  </diagram>
</mxfile>
